<svg width="23" height="24" viewBox="0 0 23 24" fill="none" xmlns="http://www.w3.org/2000/svg">
<path d="M15.6525 14.0467L15.254 13.7446L15.2498 13.7503L15.6525 14.0467ZM16.7 13.9L16.4 14.3L16.7 13.9ZM15.6523 14.0469L15.6523 14.5469C15.8113 14.5469 15.9607 14.4714 16.055 14.3434L15.6523 14.0469ZM7.84753 14.0467L7.44914 14.3489C7.54367 14.4735 7.69108 14.5467 7.84751 14.5467L7.84753 14.0467ZM6.8 13.9L6.5 13.5H6.5L6.8 13.9ZM6.65 14.95L6.25 15.25C6.41569 15.4709 6.72909 15.5157 6.95 15.35L6.65 14.95ZM7.55 14.9C7.77091 14.7343 7.81569 14.4209 7.65 14.2C7.48431 13.9791 7.17091 13.9343 6.95 14.1L7.55 14.9ZM6.65044 14.9506L6.25013 15.2502L6.25095 15.2513L6.65044 14.9506ZM6.65092 14.9512L6.25142 15.2519L6.25176 15.2523L6.65092 14.9512ZM6.65197 14.9526L6.25282 15.2538L6.2537 15.2549L6.65197 14.9526ZM6.65452 14.956L6.25625 15.2583L6.25804 15.2606L6.65452 14.956ZM6.66135 14.9649L6.26486 15.2695L6.26602 15.271L6.66135 14.9649ZM6.68193 14.991L7.07237 14.6786L7.07235 14.6786L6.68193 14.991ZM6.75087 15.074L7.1305 14.7486L7.1305 14.7486L6.75087 15.074ZM7.00092 15.3428L7.35447 14.9893H7.35447L7.00092 15.3428ZM7.95897 16.124L8.23632 15.708L7.95897 16.124ZM15.541 16.124L15.8184 16.5401L15.541 16.124ZM16.4991 15.3428L16.1455 14.9893L16.1455 14.9893L16.4991 15.3428ZM16.7491 15.074L17.1288 15.3994L17.1288 15.3994L16.7491 15.074ZM16.8181 14.991L16.4276 14.6786L16.4276 14.6786L16.8181 14.991ZM16.8386 14.9649L17.234 15.271L17.2351 15.2695L16.8386 14.9649ZM16.8455 14.956L17.242 15.2606L17.2437 15.2583L16.8455 14.956ZM16.848 14.9526L17.2463 15.2549L17.2471 15.2538L16.848 14.9526ZM16.8491 14.9512L17.2482 15.2524L17.2489 15.2515L16.8491 14.9512ZM16.8496 14.9506L17.2493 15.2509L17.2496 15.2506L16.8496 14.9506ZM16.55 14.1C16.3291 13.9343 16.0157 13.9791 15.85 14.2C15.6843 14.4209 15.7291 14.7343 15.95 14.9L16.55 14.1ZM16.85 14.95L16.55 15.35C16.7709 15.5157 17.0843 15.4709 17.25 15.25L16.85 14.95ZM11.75 2.25C6.36522 2.25 2 6.61522 2 12H3C3 7.16751 6.91751 3.25 11.75 3.25V2.25ZM21.5 12C21.5 6.61522 17.1347 2.25 11.75 2.25V3.25C16.5824 3.25 20.5 7.16751 20.5 12H21.5ZM11.75 21.75C17.1347 21.75 21.5 17.3847 21.5 12H20.5C20.5 16.8324 16.5824 20.75 11.75 20.75V21.75ZM2 12C2 17.3847 6.36522 21.75 11.75 21.75V20.75C6.91751 20.75 3 16.8324 3 12H2ZM1.5 12C1.5 6.33908 6.08908 1.75 11.75 1.75V0.75C5.53679 0.75 0.5 5.78679 0.5 12H1.5ZM11.75 22.25C6.08908 22.25 1.5 17.6609 1.5 12H0.5C0.5 18.2132 5.53679 23.25 11.75 23.25V22.25ZM22 12C22 17.6609 17.4109 22.25 11.75 22.25V23.25C17.9632 23.25 23 18.2132 23 12H22ZM11.75 1.75C17.4109 1.75 22 6.33908 22 12H23C23 5.78679 17.9632 0.75 11.75 0.75V1.75ZM16.0509 14.3489C16.1339 14.2394 16.2899 14.2174 16.4 14.3L17 13.5C16.4495 13.0871 15.6694 13.197 15.2541 13.7446L16.0509 14.3489ZM16.055 14.3434L16.0551 14.3432L15.2498 13.7503L15.2497 13.7505L16.055 14.3434ZM7.84751 14.5467L15.6523 14.5469L15.6523 13.5469L7.84754 13.5467L7.84751 14.5467ZM7.1 14.3C7.21008 14.2174 7.36612 14.2394 7.44914 14.3489L8.24591 13.7446C7.8306 13.197 7.05047 13.0871 6.5 13.5L7.1 14.3ZM7.05 14.65C6.96716 14.5395 6.98954 14.3828 7.1 14.3L6.5 13.5C5.94771 13.9142 5.83579 14.6977 6.25 15.25L7.05 14.65ZM6.95 14.1L6.35 14.55L6.95 15.35L7.55 14.9L6.95 14.1ZM7.05075 14.651C7.04316 14.6409 7.11759 14.7283 7.14195 14.8588C7.16855 15.0014 7.12721 15.1144 7.09869 15.1721C7.07217 15.2257 7.04201 15.2619 7.03078 15.2751C7.01666 15.2916 7.0044 15.3038 6.99817 15.3098C6.9857 15.3219 6.97537 15.3305 6.97262 15.3329C6.96846 15.3364 6.9652 15.339 6.96379 15.3401C6.9596 15.3435 6.95731 15.3451 6.96258 15.3411C6.97055 15.3351 6.9881 15.3218 7.02572 15.2935C7.1003 15.2374 7.24996 15.125 7.55 14.9L6.95 14.1C6.65004 14.325 6.49981 14.4378 6.42455 14.4944C6.38725 14.5224 6.3674 14.5374 6.35672 14.5456C6.35267 14.5486 6.34575 14.5539 6.33927 14.5591C6.33729 14.5607 6.3336 14.5636 6.32912 14.5674C6.32606 14.57 6.31552 14.5788 6.30292 14.591C6.29662 14.5971 6.28432 14.6093 6.27016 14.6259C6.2589 14.6391 6.22872 14.6753 6.20219 14.729C6.17366 14.7868 6.13231 14.8997 6.15892 15.0423C6.18327 15.1728 6.25771 15.2603 6.25013 15.2502L7.05075 14.651ZM7.05041 14.6505L7.04993 14.6499L6.25095 15.2513L6.25142 15.2519L7.05041 14.6505ZM7.05113 14.6515L7.05007 14.6501L6.25176 15.2523L6.25282 15.2537L7.05113 14.6515ZM7.0528 14.6537L7.05025 14.6503L6.2537 15.2549L6.25625 15.2583L7.0528 14.6537ZM7.05784 14.6602L7.05101 14.6514L6.25804 15.2606L6.26487 15.2695L7.05784 14.6602ZM7.07235 14.6786C7.06567 14.6703 7.06045 14.6636 7.05669 14.6587L6.26602 15.271C6.27289 15.2799 6.28139 15.2907 6.29151 15.3033L7.07235 14.6786ZM7.1305 14.7486C7.10515 14.7191 7.08577 14.6954 7.07237 14.6786L6.29149 15.3033C6.31167 15.3285 6.33825 15.3609 6.37124 15.3994L7.1305 14.7486ZM7.35447 14.9893C7.25583 14.8906 7.18118 14.8078 7.1305 14.7486L6.37124 15.3994C6.43717 15.4763 6.52916 15.5782 6.64737 15.6964L7.35447 14.9893ZM8.23632 15.708C7.84548 15.4474 7.55163 15.1864 7.35447 14.9893L6.64737 15.6964C6.88317 15.9322 7.22739 16.2372 7.68162 16.5401L8.23632 15.708ZM11.75 16.75C10.1915 16.75 9.01904 16.2298 8.23632 15.708L7.68162 16.5401C8.59486 17.1489 9.95706 17.75 11.75 17.75V16.75ZM15.2637 15.708C14.481 16.2298 13.3085 16.75 11.75 16.75V17.75C13.5429 17.75 14.9051 17.1489 15.8184 16.5401L15.2637 15.708ZM16.1455 14.9893C15.9484 15.1864 15.6545 15.4474 15.2637 15.708L15.8184 16.5401C16.2726 16.2372 16.6168 15.9322 16.8526 15.6964L16.1455 14.9893ZM16.3695 14.7486C16.3188 14.8078 16.2442 14.8906 16.1455 14.9893L16.8526 15.6964C16.9708 15.5782 17.0628 15.4763 17.1288 15.3994L16.3695 14.7486ZM16.4276 14.6786C16.4142 14.6954 16.3948 14.7191 16.3695 14.7486L17.1288 15.3994C17.1618 15.3609 17.1883 15.3285 17.2085 15.3033L16.4276 14.6786ZM16.4433 14.6588C16.4396 14.6636 16.4343 14.6703 16.4276 14.6786L17.2085 15.3033C17.2186 15.2907 17.2271 15.2799 17.234 15.271L16.4433 14.6588ZM16.449 14.6513L16.4422 14.6602L17.2351 15.2695L17.242 15.2606L16.449 14.6513ZM16.4498 14.6503L16.4472 14.6537L17.2437 15.2583L17.2463 15.2549L16.4498 14.6503ZM16.45 14.65L16.4489 14.6514L17.2471 15.2538L17.2482 15.2524L16.45 14.65ZM16.4498 14.6503L16.4493 14.6509L17.2489 15.2515L17.2493 15.2509L16.4498 14.6503ZM15.95 14.9C16.25 15.125 16.3997 15.2374 16.4743 15.2935C16.5119 15.3218 16.5294 15.3351 16.5374 15.3411C16.5427 15.3451 16.5404 15.3434 16.5362 15.3401C16.5348 15.339 16.5315 15.3363 16.5274 15.3328C16.5246 15.3305 16.5143 15.3218 16.5018 15.3098C16.4956 15.3037 16.4833 15.2916 16.4692 15.275C16.4579 15.2618 16.4277 15.2256 16.4012 15.1718C16.3727 15.114 16.3314 15.0009 16.3582 14.8583C16.3827 14.7278 16.4572 14.6404 16.4496 14.6506L17.2496 15.2506C17.2419 15.2607 17.3165 15.1733 17.341 15.0429C17.3678 14.9002 17.3265 14.7871 17.2979 14.7293C17.2714 14.6755 17.2412 14.6392 17.2299 14.626C17.2157 14.6094 17.2034 14.5972 17.1971 14.5911C17.1845 14.5789 17.174 14.57 17.1709 14.5674C17.1664 14.5637 17.1627 14.5607 17.1607 14.5591C17.1543 14.5539 17.1473 14.5486 17.1433 14.5456C17.1326 14.5374 17.1127 14.5224 17.0754 14.4944C17.0002 14.4378 16.85 14.325 16.55 14.1L15.95 14.9ZM17.15 14.55L16.55 14.1L15.95 14.9L16.55 15.35L17.15 14.55ZM16.4 14.3C16.5105 14.3828 16.5328 14.5395 16.45 14.65L17.25 15.25C17.6642 14.6977 17.5523 13.9142 17 13.5L16.4 14.3ZM14.25 8.5C14.25 9.05231 14.6978 9.5 15.25 9.5V8.5H14.25ZM15.25 7.5C14.6978 7.5 14.25 7.94769 14.25 8.5H15.25V7.5ZM16.25 8.5C16.25 7.94769 15.8022 7.5 15.25 7.5V8.5H16.25ZM15.25 9.5C15.8022 9.5 16.25 9.05231 16.25 8.5H15.25V9.5ZM8.25 8.5H7.25C7.25 9.05228 7.69772 9.5 8.25 9.5V8.5ZM8.25 8.5V9.5C8.80228 9.5 9.25 9.05228 9.25 8.5H8.25ZM8.25 8.5H9.25C9.25 7.94772 8.80228 7.5 8.25 7.5V8.5ZM8.25 8.5V7.5C7.69772 7.5 7.25 7.94772 7.25 8.5H8.25Z" fill="black"/>
</svg>
