<svg width="14" height="26" viewBox="0 0 14 26" fill="none" xmlns="http://www.w3.org/2000/svg">
<path d="M12.7588 5.67278V18.6694C12.7589 20.2616 12.1264 21.7886 11.0005 22.9144C9.87469 24.0403 8.34771 24.6728 6.75549 24.6727C5.16334 24.6727 3.63635 24.0402 2.51049 22.9144C1.38464 21.7885 0.752192 20.2616 0.752156 18.6694L0.752143 5.67279C0.752171 4.61131 1.17385 3.59332 1.92437 2.8428C2.67496 2.0922 3.69296 1.67053 4.75437 1.67057C5.81585 1.67055 6.83386 2.09218 7.58442 2.84274C8.33499 3.59331 8.75662 4.61131 8.75659 5.67279L8.74953 18.6764C8.74955 19.2072 8.53869 19.7162 8.16341 20.0914C7.78813 20.4667 7.27916 20.6776 6.74842 20.6776C6.21768 20.6775 5.70875 20.4668 5.33342 20.0915C4.95816 19.7162 4.74732 19.2072 4.74731 18.6764L4.75437 6.67688" stroke="black" stroke-width="1.5" stroke-linecap="round" stroke-linejoin="round"/>
</svg>
