<svg width="22" height="18" viewBox="0 0 22 18" fill="none" xmlns="http://www.w3.org/2000/svg">
<path fill-rule="evenodd" clip-rule="evenodd" d="M1.54106 0.308767C1.25745 0.18935 0.929666 0.255298 0.714301 0.475107C0.498937 0.694916 0.439698 1.02398 0.564882 1.30509L3.99152 8.99999L0.564882 16.6949C0.439698 16.976 0.498937 17.3051 0.714301 17.5249C0.929666 17.7447 1.25745 17.8106 1.54106 17.6912L20.4015 9.74999H21.25C21.6642 9.74999 22 9.41421 22 8.99999C22 8.58578 21.6642 8.24999 21.25 8.24999H20.4015L1.54106 0.308767ZM16.5361 8.24999L2.70649 2.42702L5.35075 8.36499C5.46636 8.29214 5.60327 8.24999 5.75002 8.24999H16.5361ZM5.35075 9.635L2.70649 15.573L16.5361 9.74999H5.75002C5.60327 9.74999 5.46636 9.70785 5.35075 9.635Z" fill="white"/>
</svg>
