<svg width="19" height="15" viewBox="0 0 19 15" fill="none" xmlns="http://www.w3.org/2000/svg">
<path fill-rule="evenodd" clip-rule="evenodd" d="M1.28552 0.0907457C1.04918 -0.00876835 0.776023 0.0461885 0.596553 0.229363C0.417083 0.412537 0.367717 0.686754 0.472037 0.921018L3.32757 7.33343L0.472037 13.7459C0.367717 13.9801 0.417083 14.2543 0.596553 14.4375C0.776023 14.6207 1.04918 14.6756 1.28552 14.5761L17.0025 7.95845H17.7097C18.0548 7.95845 18.3347 7.67863 18.3347 7.33345C18.3347 6.98828 18.0548 6.70845 17.7097 6.70845H17.0026L1.28552 0.0907457ZM13.7814 6.70845L2.25671 1.85595L4.46027 6.80428C4.55661 6.74358 4.6707 6.70845 4.79299 6.70845H13.7814ZM4.46025 7.86262L2.25671 12.8109L13.7813 7.95845H4.79299C4.67069 7.95845 4.5566 7.92333 4.46025 7.86262Z" fill="black"/>
</svg>
